<?xml version="1.0" encoding="UTF-8"?>
<svg xmlns="http://www.w3.org/2000/svg" xmlns:xlink="http://www.w3.org/1999/xlink" width="256pt" height="256pt" viewBox="0 0 256 256" version="1.1">
<g id="surface7313332">
<path style=" stroke:none;fill-rule:nonzero;fill:rgb(0%,0%,0%);fill-opacity:1;" d="M 124 16 C 82.09375 16 48 50.09375 48 92 C 48 111.890625 59.125 126.75 69.890625 141.125 C 78.484375 152.609375 86.578125 163.546875 88 176 L 88 204 C 88 218.078125 98.453125 229.734375 112 231.6875 L 112 236 C 112 240.40625 115.59375 244 120 244 L 128 244 C 132.40625 244 136 240.40625 136 236 L 136 231.6875 C 149.546875 229.734375 160 218.078125 160 204 L 160 179.59375 C 160.0625 165.609375 168.890625 153.71875 178.25 141.125 C 188.953125 126.75 200 111.890625 200 92 C 200 50.09375 165.90625 16 124 16 Z M 124 24 C 161.5 24 192 54.5 192 92 C 192 109.25 181.75 123.03125 171.84375 136.359375 C 162.875 148.421875 153.625 160.84375 152.1875 175.75 L 128 175.75 L 128 164 C 128 161.796875 126.203125 160 124 160 C 121.796875 160 120 161.796875 120 164 L 120 175.765625 L 96.109375 175.765625 C 94.65625 160.859375 85.328125 148.40625 76.296875 136.328125 C 66.3125 123 56 109.234375 56 92 C 56 54.5 86.5 24 124 24 Z M 123.453125 35.984375 C 112.765625 36.078125 102.328125 39.21875 93.25 45.1875 C 91.40625 46.390625 90.90625 48.875 92.125 50.71875 C 92.890625 51.890625 94.15625 52.515625 95.453125 52.515625 C 96.21875 52.515625 96.96875 52.3125 97.65625 51.859375 C 108.015625 45.046875 120.46875 42.546875 132.734375 44.796875 C 134.921875 45.1875 137 43.75 137.390625 41.578125 C 137.796875 39.40625 136.359375 37.328125 134.1875 36.9375 C 130.609375 36.265625 127.03125 35.953125 123.453125 35.984375 Z M 151.4375 43.5 C 149.90625 43.28125 148.296875 43.984375 147.4375 45.390625 C 146.296875 47.296875 146.90625 49.75 148.8125 50.890625 C 152.109375 52.890625 155.1875 55.296875 157.9375 58.0625 C 158.71875 58.84375 159.75 59.234375 160.765625 59.234375 C 161.796875 59.234375 162.828125 58.84375 163.609375 58.0625 C 165.171875 56.5 165.171875 53.96875 163.609375 52.40625 C 160.375 49.1875 156.796875 46.375 152.9375 44.046875 C 152.46875 43.765625 151.953125 43.578125 151.4375 43.5 Z M 20.09375 46.046875 C 18.53125 46.078125 17.0625 47.015625 16.4375 48.546875 C 15.625 50.59375 16.609375 52.9375 18.65625 53.75 L 33.5 59.75 C 33.984375 59.953125 34.484375 60.046875 34.984375 60.046875 C 36.5625 60.046875 38.078125 59.09375 38.703125 57.546875 C 39.53125 55.484375 38.53125 53.15625 36.484375 52.328125 L 21.65625 46.328125 C 21.140625 46.125 20.609375 46.03125 20.09375 46.046875 Z M 227.90625 46.046875 C 227.390625 46.03125 226.859375 46.125 226.34375 46.328125 L 211.515625 52.328125 C 209.46875 53.15625 208.46875 55.484375 209.296875 57.546875 C 209.921875 59.09375 211.4375 60.046875 213.015625 60.046875 C 213.515625 60.046875 214.015625 59.953125 214.5 59.75 L 229.34375 53.75 C 231.390625 52.9375 232.375 50.59375 231.5625 48.546875 C 230.9375 47.015625 229.46875 46.078125 227.90625 46.046875 Z M 4 88 C 1.796875 88 0 89.796875 0 92 C 0 94.203125 1.796875 96 4 96 L 28 96 C 30.203125 96 32 94.203125 32 92 C 32 89.796875 30.203125 88 28 88 Z M 220 88 C 217.796875 88 216 89.796875 216 92 C 216 94.203125 217.796875 96 220 96 L 244 96 C 246.203125 96 248 94.203125 248 92 C 248 89.796875 246.203125 88 244 88 Z M 108 104 C 106.984375 104 105.953125 104.390625 105.171875 105.171875 C 103.609375 106.734375 103.609375 109.265625 105.171875 110.828125 L 113.171875 118.828125 C 113.953125 119.609375 114.96875 120 116 120 C 117.03125 120 118.046875 119.609375 118.828125 118.828125 C 120.390625 117.265625 120.390625 114.734375 118.828125 113.171875 L 110.828125 105.171875 C 110.046875 104.390625 109.015625 104 108 104 Z M 140 104 C 138.984375 104 137.953125 104.390625 137.171875 105.171875 L 121.171875 121.171875 C 120.421875 121.921875 120 122.9375 120 124 L 120 148 C 120 150.203125 121.796875 152 124 152 C 126.203125 152 128 150.203125 128 148 L 128 125.65625 L 142.828125 110.828125 C 144.390625 109.265625 144.390625 106.734375 142.828125 105.171875 C 142.046875 104.390625 141.015625 104 140 104 Z M 35.0625 123.953125 C 34.53125 123.953125 34 124.046875 33.5 124.25 L 18.65625 130.25 C 16.609375 131.0625 15.625 133.40625 16.4375 135.453125 C 17.078125 137.015625 18.578125 137.953125 20.15625 137.953125 C 20.65625 137.953125 21.171875 137.859375 21.65625 137.671875 L 36.484375 131.671875 C 38.53125 130.84375 39.53125 128.515625 38.703125 126.453125 C 38.078125 124.921875 36.609375 123.984375 35.0625 123.953125 Z M 212.9375 123.96875 C 211.390625 124 209.921875 124.9375 209.296875 126.46875 C 208.46875 128.515625 209.46875 130.859375 211.515625 131.6875 L 226.34375 137.671875 C 226.828125 137.875 227.34375 137.953125 227.84375 137.953125 C 229.421875 137.953125 230.921875 137.015625 231.5625 135.453125 C 232.375 133.40625 231.390625 131.078125 229.34375 130.25 L 214.5 124.25 C 214 124.046875 213.46875 123.953125 212.9375 123.96875 Z M 96 184 L 152 184 L 152 188.46875 L 96 195.46875 Z M 152 196.53125 L 152 204 C 152 204.15625 151.953125 204.3125 151.953125 204.484375 L 111.328125 209.5625 C 109.140625 209.828125 107.59375 211.828125 107.875 214.015625 C 108.125 216.046875 109.84375 217.515625 111.828125 217.515625 C 112 217.515625 112.15625 217.515625 112.328125 217.484375 L 149.875 212.796875 C 146.609375 219.40625 139.859375 224 132 224 L 116 224 C 104.96875 224 96 215.03125 96 204 L 96 203.53125 Z M 120 232 L 128 232 L 128 236 L 120 236 Z M 120 232 "/>
</g>
</svg>
